<?xml version="1.0" encoding="UTF-8" standalone="no"?>
<!-- Generator: Adobe Illustrator 22.1.0, SVG Export Plug-In . SVG Version: 6.00 Build 0)  -->

<svg
   xmlns:dc="http://purl.org/dc/elements/1.1/"
   xmlns:cc="http://creativecommons.org/ns#"
   xmlns:rdf="http://www.w3.org/1999/02/22-rdf-syntax-ns#"
   xmlns:svg="http://www.w3.org/2000/svg"
   xmlns="http://www.w3.org/2000/svg"
   xmlns:sodipodi="http://sodipodi.sourceforge.net/DTD/sodipodi-0.dtd"
   xmlns:inkscape="http://www.inkscape.org/namespaces/inkscape"
   version="1.1"
   id="Layer_1"
   x="0px"
   y="0px"
   viewBox="0 0 310 494"
   style="enable-background:new 0 0 310 494;"
   xml:space="preserve"
   sodipodi:docname="ENDURANocircle.svg"
   inkscape:version="0.92.4 (5da689c313, 2019-01-14)"><metadata
   id="metadata1113"><rdf:RDF><cc:Work
       rdf:about=""><dc:format>image/svg+xml</dc:format><dc:type
         rdf:resource="http://purl.org/dc/dcmitype/StillImage" /><dc:title /></cc:Work></rdf:RDF></metadata><defs
   id="defs1111" /><sodipodi:namedview
   pagecolor="#ffffff"
   bordercolor="#666666"
   borderopacity="1"
   objecttolerance="10"
   gridtolerance="10"
   guidetolerance="10"
   inkscape:pageopacity="0"
   inkscape:pageshadow="2"
   inkscape:window-width="1366"
   inkscape:window-height="715"
   id="namedview1109"
   showgrid="false"
   inkscape:zoom="1.1396761"
   inkscape:cx="104.30964"
   inkscape:cy="241.22567"
   inkscape:window-x="-8"
   inkscape:window-y="-8"
   inkscape:window-maximized="1"
   inkscape:current-layer="g471" />
   xmlns:sodipodi=&quot;http://sodipodi.sourceforge.net/DTD/sodipodi-0.dtd&quot;
   xmlns:inkscape=&quot;http://www.inkscape.org/namespaces/inkscape&quot;
  
  
  
<style
   id="style246"
   type="text/css">
	.st0{fill:#BFBFBF;}
	.st1{fill:none;}
	.st2{fill:#4B9DB7;}
	.st3{fill:#FFFFFF;}
	.st4{fill:#546FA6;}
	.st5{fill:#223884;}
	.st6{fill:#00B5E2;}
	.st7{fill:#99D6EA;}
	.st8{fill:#007576;}
	.st9{fill:#83C447;}
	.st10{fill:#235723;}
	.st11{fill:#2A8A60;}
</style>
<switch
   id="switch473">

	<g
   transform="translate(0.95964492,6.0777512)"
   style="display:inline"
   id="g471">
		<g
   transform="translate(-0.31988164,-1.2795266)"
   id="BASE"
   style="display:inline">
			<polygon
   style="fill:#bfbfbf"
   id="polygon248"
   points="105.5,396.4 92.9,431.3 85.9,436.2 85.9,444.2 141,444.2 151.9,413.5 "
   class="st0" />
			<polygon
   style="fill:#bfbfbf"
   id="polygon250"
   points="222.3,436.2 215.3,431.3 202.7,396.4 156.3,413.5 167.3,444.2 222.3,444.2 "
   class="st0" />
			<path
   style="fill:#bfbfbf"
   id="path252"
   d="m 60.2,449.7 v 42.6 h 188.3 v -42.6 z m 178.2,28.6 H 72.5 V 464 h 165.9 z"
   class="st0"
   inkscape:connector-curvature="0" />
			<g
   id="g264">
				<path
   style="fill:none"
   id="path254"
   d="m 154.5,216.7 c 35,0 63.4,-28.3 63.3,-63.2 0,-34.9 -28.3,-63.2 -63.3,-63.2 -35,0 -63.3,28.3 -63.3,63.2 0,34.9 28.3,63.2 63.3,63.2 z"
   class="st1"
   inkscape:connector-curvature="0" />
				<path
   style="fill:none"
   id="path256"
   d="m 170.6,241.7 c 0,15 12.2,27.2 27.3,27.2 15.1,0 27.3,-12.2 27.3,-27.2 0,-15.1 -12.2,-27.3 -27.3,-27.2 -15.1,0 -27.3,12.2 -27.3,27.2 z"
   class="st1"
   inkscape:connector-curvature="0" />
				<path
   style="fill:none"
   id="path258"
   d="m 154.6,264.1 c -35,0 -63.3,28.3 -63.3,63.2 0,34.9 28.3,63.2 63.3,63.2 35,0 63.3,-28.3 63.3,-63.2 0,-34.9 -28.4,-63.2 -63.3,-63.2 z"
   class="st1"
   inkscape:connector-curvature="0" />
				
				<path
   style="fill:#bfbfbf"
   id="path262"
   d="m 75.5,345.2 c -0.3,1.5 0,3.2 0.8,4.5 l 23.1,38.1 c 0.7,1.2 1.9,2.1 3.2,2.6 l 49.6,18.4 c 1.4,0.5 2.9,0.5 4.3,0 l 49.9,-18.3 c 1.4,-0.5 2.5,-1.5 3.2,-2.7 l 22.1,-38.2 c 0.8,-1.3 1,-2.9 0.7,-4.4 l -15.5,-73.1 c -0.5,-2.5 0.5,-5.1 2.7,-6.5 l 6.7,-4.4 c 1.8,-1.1 2.8,-3.1 2.8,-5.2 v -29.1 c 0,-2.1 -1.1,-4.1 -2.9,-5.3 l -7.3,-4.7 c -2.3,-1.4 -3.4,-4.1 -2.7,-6.7 l 17,-70.8 c 0.5,-1.8 0,-3.8 -1.1,-5.3 L 193.2,83.7 c -1.2,-1.5 -3,-2.4 -4.9,-2.4 h -68.4 c -2,0 -3.9,1 -5,2.5 l -37.2,50.4 c -1,1.5 -1.5,3.3 -1.1,5 l 15.3,71.5 c 0.6,2.6 -0.6,5.3 -2.9,6.7 l -7.2,4.3 c -1.9,1.1 -3.1,3.1 -3.1,5.3 v 29 c 0,2.1 1,4.1 2.8,5.2 l 6.8,4.4 c 2.1,1.4 3.2,4 2.7,6.5 z m 142.4,-17.9 c 0,34.9 -28.3,63.2 -63.3,63.2 -35,0 -63.3,-28.3 -63.3,-63.2 0,-34.9 28.3,-63.2 63.3,-63.2 34.9,0 63.3,28.3 63.3,63.2 z m 7.3,-85.6 c 0,15 -12.2,27.2 -27.3,27.2 -15.1,0 -27.3,-12.2 -27.3,-27.2 0,-15 12.2,-27.2 27.3,-27.2 15.1,-0.1 27.3,12.1 27.3,27.2 z m -134,-88.2 c 0,-34.9 28.3,-63.2 63.3,-63.2 35,0 63.3,28.3 63.3,63.2 0.1,34.9 -28.3,63.2 -63.3,63.2 -35,0 -63.3,-28.3 -63.3,-63.2 z m -7.3,88.2 c 0,-15 12.2,-27.2 27.3,-27.2 15.1,0 27.3,12.2 27.3,27.2 0,15 -12.2,27.2 -27.3,27.2 -15.1,0 -27.3,-12.2 -27.3,-27.2 z"
   class="st0"
   inkscape:connector-curvature="0" />
			</g>
		</g>
		<g
   id="1-HOVER">
			<circle
   style="fill:#4b9db7"
   id="circle267"
   r="18"
   cy="180"
   cx="45.799999"
   class="st2" />
			<polygon
   style="fill:#ffffff"
   id="polygon269"
   points="47.4,186.9 47.4,174.8 47.1,174.8 42.4,176.5 42.4,178.2 45.4,177.2 45.4,186.9 "
   class="st3" />
			<g
   id="g275">
				<path
   style="fill:none"
   id="path271"
   d="m 17.8,216.7 c 0.2,0 0.5,0 0.8,-0.1 l 61.6,-13.5 c 1,-0.3 1.9,-0.9 2.4,-1.7 0.5,-0.8 0.7,-1.8 0.5,-2.8 L 71.8,147.1 c -0.3,-1.8 -1.8,-3 -3.6,-3 -0.3,0 -0.6,0 -0.8,0.1 L 5.8,157.8 c -1,0.2 -1.9,0.8 -2.4,1.6 -0.5,0.8 -0.7,1.8 -0.5,2.8 l 11.3,51.5 c 0.3,1.8 1.8,3 3.6,3 z"
   class="st1"
   inkscape:connector-curvature="0" />
				<path
   style="fill:#4b9db7"
   id="path273"
   d="m 17.8,218.6 c 0.4,0 0.8,0 1.2,-0.1 L 80.6,205 c 3.1,-0.7 5.1,-3.8 4.4,-6.8 L 73.7,146.7 c -0.5,-2.8 -2.9,-4.6 -5.5,-4.6 -0.4,0 -0.8,0 -1.2,0.1 L 5.3,155.8 c -3.1,0.7 -5.1,3.8 -4.4,6.8 l 11.3,51.5 c 0.6,2.7 2.9,4.5 5.6,4.5 z M 3.4,159.4 c 0.5,-0.8 1.4,-1.4 2.4,-1.6 l 61.6,-13.6 c 0.2,-0.1 0.5,-0.1 0.8,-0.1 1.8,0 3.3,1.2 3.6,3 l 11.3,51.5 c 0.2,1 0,2 -0.5,2.8 -0.5,0.8 -1.4,1.4 -2.4,1.7 l -61.6,13.5 c -0.3,0.1 -0.6,0.1 -0.8,0.1 -1.8,0 -3.3,-1.2 -3.6,-3 L 2.9,162.2 c -0.2,-1 0,-2 0.5,-2.8 z"
   class="st2"
   inkscape:connector-curvature="0" />
			</g>
		</g>
		<g
   id="1-ACTIVE"
   style="display:inline">
		
			<path
   style="fill:#4b9db7"
   id="path278"
   d="M 18.9,218.5 80.6,205 c 3.1,-0.7 5.1,-3.7 4.3,-6.9 L 73.6,146.6 c -0.6,-3.1 -3.7,-5.1 -6.8,-4.4 L 5.2,155.8 c -3.1,0.6 -5.1,3.7 -4.4,6.8 l 11.3,51.5 c 0.6,3.1 3.7,5.1 6.8,4.4 z"
   class="st2"
   inkscape:connector-curvature="0" />
			
			<g
   id="g284">
			<path
   style="fill:#ffffff"
   id="path282"
   d="m 45.8,158.8 c -11.7,0 -21.2,9.5 -21.2,21.2 0,11.7 9.5,21.2 21.2,21.2 11.7,0 21.2,-9.5 21.2,-21.2 0,-11.7 -9.5,-21.2 -21.2,-21.2 z m 0,39.2 c -9.9,0 -18,-8.1 -18,-18 0,-9.9 8.1,-18 18,-18 9.9,0 18,8.1 18,18 0,9.9 -8.1,18 -18,18 z"
   class="st3"
   inkscape:connector-curvature="0" />
			
			</g>

			<polygon
   style="fill:#ffffff"
   id="polygon286"
   points="42.5,178.2 45.5,177.2 45.5,186.9 47.5,186.9 47.5,174.8 47.2,174.8 42.5,176.5 "
   class="st3" />
		</g>
		<g
   id="2-HOVER">
			<circle
   style="fill:#546fa6"
   id="circle289"
   r="18"
   cy="83.199997"
   cx="62.5"
   class="st4" />
			<path
   style="fill:#ffffff"
   id="path291"
   d="m 65.7,82.2 c 0.3,-0.7 0.5,-1.3 0.5,-1.9 0,-1 -0.3,-1.8 -1,-2.4 -0.7,-0.6 -1.6,-0.9 -2.8,-0.9 -0.9,0 -1.6,0.2 -2.2,0.5 -0.6,0.4 -1.1,0.8 -1.4,1.4 -0.3,0.6 -0.5,1.3 -0.5,2 h 2 c 0,-0.7 0.1,-1.2 0.5,-1.6 0.3,-0.4 0.8,-0.6 1.5,-0.6 0.5,0 1,0.1 1.3,0.5 0.3,0.4 0.5,0.8 0.5,1.4 0,0.4 -0.2,0.9 -0.4,1.3 -0.2,0.4 -0.6,1 -1.2,1.6 l -4,4.4 v 1.4 h 8.1 V 87.7 H 61 l 3,-3.2 c 0.8,-0.9 1.4,-1.6 1.7,-2.3 z"
   class="st3"
   inkscape:connector-curvature="0" />
			<g
   id="g297">
				<path
   style="fill:none"
   id="path293"
   d="m 19.4,88.7 51,37.3 c 0.6,0.4 1.4,0.7 2.2,0.7 1.2,0 2.3,-0.5 3,-1.5 l 31.1,-42.6 c 0.6,-0.8 0.9,-1.8 0.7,-2.8 -0.2,-1 -0.7,-1.8 -1.5,-2.4 l -51,-37.2 c -0.6,-0.5 -1.4,-0.7 -2.2,-0.7 -1.2,0 -2.3,0.6 -3,1.4 L 18.6,83.5 c -0.6,0.8 -0.9,1.8 -0.7,2.8 0.2,1 0.7,1.8 1.5,2.4 z"
   class="st1"
   inkscape:connector-curvature="0" />
				<path
   style="fill:#546fa6"
   id="path295"
   d="m 69.1,127.8 c 1,0.7 2.2,1.1 3.4,1.1 1.8,0 3.5,-0.8 4.6,-2.4 l 31.1,-42.6 c 1.9,-2.6 1.3,-6.2 -1.3,-8.1 l -51,-37.2 c -0.8,-0.8 -2,-1.1 -3.2,-1.1 -1.8,0 -3.5,0.8 -4.6,2.4 L 16.9,82.4 C 15,85 15.6,88.6 18.2,90.5 Z M 18.6,83.5 49.7,40.9 c 0.7,-0.8 1.8,-1.4 3,-1.4 0.8,0 1.6,0.2 2.2,0.7 l 51,37.2 c 0.8,0.6 1.3,1.4 1.5,2.4 0.2,1 -0.1,2 -0.7,2.8 l -31.1,42.6 c -0.7,1 -1.8,1.5 -3,1.5 -0.8,0 -1.6,-0.3 -2.2,-0.7 l -51,-37.3 c -0.8,-0.6 -1.3,-1.4 -1.5,-2.4 -0.2,-1 0.1,-2 0.7,-2.8 z"
   class="st4"
   inkscape:connector-curvature="0" />
			</g>
		</g>
		<g
   id="2-ACTIVE"
   style="display:inline">
			<path
   style="fill:#546fa6"
   id="path300"
   d="m 69.1,127.7 c 2.5,1.9 6.1,1.4 8,-1.2 l 31.1,-42.6 c 1.8,-2.6 1.3,-6.2 -1.3,-8.1 l -51,-37.2 c -2.5,-1.8 -6.1,-1.3 -8,1.3 L 16.8,82.4 c -1.8,2.6 -1.3,6.2 1.3,8.1 z"
   class="st4"
   inkscape:connector-curvature="0" />
			
			<path
   style="fill:#ffffff"
   id="path304"
   d="m 65.8,82.2 c 0.3,-0.7 0.5,-1.3 0.5,-1.9 0,-1 -0.3,-1.8 -1,-2.4 -0.7,-0.6 -1.6,-0.9 -2.8,-0.9 -0.9,0 -1.6,0.2 -2.2,0.5 -0.6,0.4 -1.1,0.8 -1.4,1.4 -0.3,0.6 -0.5,1.3 -0.5,2 h 2 c 0,-0.7 0.1,-1.2 0.5,-1.6 0.3,-0.4 0.8,-0.6 1.5,-0.6 0.5,0 1,0.1 1.3,0.5 0.3,0.4 0.5,0.8 0.5,1.4 0,0.4 -0.2,0.9 -0.4,1.3 -0.2,0.4 -0.6,1 -1.2,1.6 l -4,4.4 v 1.4 h 8.1 v -1.6 h -5.6 l 3,-3.2 c 0.8,-0.9 1.4,-1.6 1.7,-2.3 z"
   class="st3"
   inkscape:connector-curvature="0" />
			<g
   id="g308">
				<path
   style="fill:#ffffff"
   id="path306"
   d="m 62.5,62 c -11.7,0 -21.2,9.5 -21.2,21.2 0,11.7 9.5,21.2 21.2,21.2 11.7,0 21.2,-9.5 21.2,-21.2 C 83.7,71.5 74.2,62 62.5,62 Z m 0,39.2 c -9.9,0 -18,-8.1 -18,-18 0,-9.9 8.1,-18 18,-18 9.9,0 18,8.1 18,18 0,9.9 -8.1,18 -18,18 z"
   class="st3"
   inkscape:connector-curvature="0" />
			</g>
		</g>
		<g
   id="3-HOVER">
			<path
   style="fill:#223884"
   id="path311"
   d="m 263.4,83.1 c 0,-9.9 -8.1,-18 -18,-18 -9.9,0 -18,8.1 -18,18 0,9.9 8.1,18 18,18 10,0 18,-8 18,-18 z"
   class="st5"
   inkscape:connector-curvature="0" />
			<path
   style="fill:#ffffff"
   id="path313"
   d="m 245.9,87.8 c -0.6,0 -1,-0.2 -1.4,-0.5 C 244.2,87 244,86.5 244,86 h -2 c 0,1.1 0.4,1.9 1.1,2.5 0.8,0.6 1.7,0.9 2.9,0.9 1.2,0 2.2,-0.3 2.9,-1 0.7,-0.7 1.1,-1.5 1.1,-2.6 0,-0.6 -0.2,-1.2 -0.5,-1.7 -0.3,-0.5 -0.8,-0.9 -1.5,-1.1 0.5,-0.3 1,-0.6 1.3,-1.1 0.3,-0.4 0.5,-1 0.5,-1.5 0,-1.1 -0.3,-1.9 -1,-2.5 -0.6,-0.6 -1.6,-0.9 -2.8,-0.9 -0.8,0 -1.4,0.1 -2,0.4 -0.6,0.3 -1.1,0.7 -1.4,1.2 -0.3,0.5 -0.5,1.1 -0.5,1.7 h 2 c 0,-0.5 0.2,-0.9 0.5,-1.2 0.3,-0.3 0.8,-0.5 1.3,-0.5 0.6,0 1.1,0.2 1.4,0.5 0.3,0.3 0.5,0.7 0.5,1.3 0,0.6 -0.1,1.1 -0.5,1.4 -0.4,0.3 -0.9,0.5 -1.5,0.5 h -1.2 -0.2 v 1.6 h 1.2 c 0.8,0 1.3,0.2 1.7,0.5 0.4,0.4 0.6,0.9 0.6,1.5 0,0.6 -0.1,1.1 -0.5,1.4 -0.4,0.3 -0.9,0.5 -1.5,0.5 z"
   class="st3"
   inkscape:connector-curvature="0" />
			<g
   id="g319">
				<path
   style="fill:none"
   id="path315"
   d="m 237,127.1 c 0.9,0 1.6,-0.3 2.3,-0.8 l 50.1,-38.4 c 1.7,-1.3 2,-3.6 0.7,-5.3 l -32,-41.8 c -0.7,-1 -1.8,-1.5 -3,-1.5 -0.8,0 -1.6,0.2 -2.3,0.8 l -50.1,38.4 c -1.7,1.2 -2,3.6 -0.8,5.2 l 32.1,41.9 c 0.8,1 1.9,1.5 3,1.5 z"
   class="st1"
   inkscape:connector-curvature="0" />
				<path
   style="fill:#223884"
   id="path317"
   d="m 237.2,129.1 c 1.2,0 2.4,-0.4 3.5,-1.2 l 50.1,-38.4 c 2.5,-1.9 3,-5.5 1.1,-8.1 l -32,-41.8 c -1.2,-1.6 -3,-2.3 -4.7,-2.3 -1.2,0 -2.4,0.4 -3.5,1.2 l -50.1,38.4 c -2.5,1.9 -3,5.5 -1.1,8 l 32.1,41.9 c 1.1,1.5 2.9,2.3 4.6,2.3 z M 202.8,78.5 252.9,40.1 c 0.7,-0.6 1.5,-0.8 2.3,-0.8 1.2,0 2.3,0.5 3,1.5 l 32,41.8 c 1.3,1.7 1,4 -0.7,5.3 l -50.1,38.4 c -0.7,0.5 -1.4,0.8 -2.3,0.8 -1.2,0 -2.3,-0.5 -3,-1.5 L 202,83.7 c -1.2,-1.6 -1,-4 0.8,-5.2 z"
   class="st5"
   inkscape:connector-curvature="0" />
			</g>
		</g>
		<g
   id="3-ACTIVE"
   style="display:inline">
			<path
   style="fill:#223884"
   id="path322"
   d="m 240.4,127.8 50.1,-38.4 c 2.6,-2 3,-5.6 1.1,-8.1 l -32,-41.8 c -2,-2.6 -5.6,-3 -8.1,-1.1 l -50.1,38.4 c -2.5,2 -3,5.6 -1.2,8 l 32.1,41.9 c 2,2.6 5.6,3 8.1,1.1 z"
   class="st5"
   inkscape:connector-curvature="0" />
			
			<path
   style="fill:#ffffff"
   id="path326"
   d="m 245.8,87.8 c -0.6,0 -1,-0.2 -1.4,-0.5 -0.3,-0.3 -0.5,-0.8 -0.5,-1.3 h -2 c 0,1.1 0.4,1.9 1.1,2.5 0.8,0.6 1.7,0.9 2.9,0.9 1.2,0 2.2,-0.3 2.9,-1 0.7,-0.7 1.1,-1.5 1.1,-2.6 0,-0.6 -0.2,-1.2 -0.5,-1.7 -0.3,-0.5 -0.8,-0.9 -1.5,-1.1 0.5,-0.3 1,-0.6 1.3,-1.1 0.3,-0.4 0.5,-1 0.5,-1.5 0,-1.1 -0.3,-1.9 -1,-2.5 -0.6,-0.6 -1.6,-0.9 -2.8,-0.9 -0.8,0 -1.4,0.1 -2,0.4 -0.6,0.3 -1.1,0.7 -1.4,1.2 -0.3,0.5 -0.5,1.1 -0.5,1.7 h 2 c 0,-0.5 0.2,-0.9 0.5,-1.2 0.3,-0.3 0.8,-0.5 1.3,-0.5 0.6,0 1.1,0.2 1.4,0.5 0.3,0.3 0.5,0.7 0.5,1.3 0,0.6 -0.1,1.1 -0.5,1.4 -0.4,0.3 -0.9,0.5 -1.5,0.5 h -1.2 -0.2 v 1.6 h 1.2 c 0.8,0 1.3,0.2 1.7,0.5 0.4,0.4 0.6,0.9 0.6,1.5 0,0.6 -0.1,1.1 -0.5,1.4 -0.4,0.3 -0.9,0.5 -1.5,0.5 z"
   class="st3"
   inkscape:connector-curvature="0" />
			<g
   id="g330">
				<path
   style="fill:#ffffff"
   id="path328"
   d="M 249.5,62.3 C 238,60.1 226.9,67.5 224.6,79 c -2.2,11.5 5.2,22.6 16.7,24.9 11.5,2.2 22.6,-5.2 24.9,-16.7 2.3,-11.5 -5.2,-22.6 -16.7,-24.9 z m -4.1,38.8 c -9.9,0 -18,-8.1 -18,-18 0,-9.9 8.1,-18 18,-18 9.9,0 18,8.1 18,18 0,9.9 -8,18 -18,18 z"
   class="st3"
   inkscape:connector-curvature="0" />
			</g>
		</g>
		<g
   id="4-HOVER">
			<path
   style="fill:#00b5e2"
   id="path333"
   d="m 284.1,180.9 c 0,-9.9 -8.1,-18 -18,-18 -9.9,0 -18,8.1 -18,18 0,9.9 8.1,18 18,18 9.9,0 18,-8.1 18,-18 z"
   class="st6"
   inkscape:connector-curvature="0" />
			<g
   id="g339">
				<polygon
   style="fill:none"
   id="polygon335"
   points="263.4,182.1 266.6,182.1 266.6,177.1 266.5,177.4 "
   class="st1" />
				<path
   style="fill:#ffffff"
   id="path337"
   d="m 266.5,174.3 -5.2,8.2 0.1,1.2 h 5.2 v 2.7 h 2 v -2.7 h 1.5 v -1.6 h -1.5 v -7.8 z m 0.1,7.8 h -3.2 l 3.1,-4.7 0.1,-0.3 z"
   class="st3"
   inkscape:connector-curvature="0" />
			</g>
			<g
   id="g345">
				<path
   style="fill:none"
   id="path341"
   d="m 289.9,217.6 c 0.3,0.1 0.6,0.1 0.9,0.1 1.8,0 3.3,-1.2 3.7,-2.9 l 12.4,-51.3 c 0.2,-0.9 0,-1.9 -0.5,-2.8 -0.5,-0.9 -1.3,-1.5 -2.3,-1.7 l -61.4,-14.8 c -0.3,-0.1 -0.6,-0.1 -0.9,-0.1 -1.8,0 -3.3,1.2 -3.7,3 l -12.4,51.3 c -0.2,0.9 0,1.9 0.5,2.8 0.5,0.9 1.3,1.5 2.3,1.7 z"
   class="st1"
   inkscape:connector-curvature="0" />
				<path
   style="fill:#00b5e2"
   id="path343"
   d="m 289.4,219.5 c 0.4,0.1 0.9,0.2 1.3,0.2 2.6,0 5,-1.8 5.6,-4.4 L 308.7,164 c 0.7,-3.1 -1.2,-6.2 -4.3,-6.9 L 243,142.3 c -0.4,-0.2 -0.9,-0.2 -1.3,-0.2 -2.6,0 -5,1.8 -5.6,4.5 l -12.4,51.3 c -0.7,3.1 1.2,6.2 4.3,6.9 z m -63.3,-18.3 c -0.5,-0.9 -0.7,-1.9 -0.5,-2.8 L 238,147.1 c 0.4,-1.8 1.9,-3 3.7,-3 0.3,0 0.6,0 0.9,0.1 L 304,159 c 1,0.2 1.8,0.8 2.3,1.7 0.5,0.9 0.7,1.9 0.5,2.8 l -12.4,51.3 c -0.4,1.7 -1.9,2.9 -3.7,2.9 -0.3,0 -0.6,0 -0.9,-0.1 l -61.4,-14.7 c -1,-0.2 -1.8,-0.8 -2.3,-1.7 z"
   class="st6"
   inkscape:connector-curvature="0" />
			</g>
		</g>
		<g
   id="4-ACTIVE"
   style="display:inline">
			<path
   style="fill:#00b5e2"
   id="path348"
   d="m 289.3,219.5 c 3,0.7 6.2,-1.2 6.9,-4.3 l 12.4,-51.3 c 0.7,-3 -1.2,-6.2 -4.3,-6.9 l -61.4,-14.8 c -3.1,-0.7 -6.2,1.2 -6.9,4.4 l -12.4,51.3 c -0.7,3 1.2,6.2 4.3,6.9 z"
   class="st6"
   inkscape:connector-curvature="0" />
			
			<g
   id="g356">
				<polygon
   style="fill:none"
   id="polygon352"
   points="266.7,182.1 266.7,177.1 266.6,177.4 263.5,182.1 "
   class="st1" />
				<path
   style="fill:#ffffff"
   id="path354"
   d="m 266.6,174.3 -5.2,8.2 0.1,1.2 h 5.2 v 2.7 h 2 v -2.7 h 1.5 v -1.6 h -1.5 v -7.8 z m 0.1,7.8 h -3.2 l 3.1,-4.7 0.1,-0.3 z"
   class="st3"
   inkscape:connector-curvature="0" />
			</g>
			<g
   id="g360">
				<path
   style="fill:#ffffff"
   id="path358"
   d="m 269.4,160 c -11.6,-1.9 -22.4,6 -24.3,17.5 -1.9,11.6 6,22.4 17.5,24.3 11.6,1.9 22.4,-6 24.3,-17.5 2,-11.6 -5.9,-22.5 -17.5,-24.3 z m -3.3,38.9 c -9.9,0 -18,-8.1 -18,-18 0,-9.9 8.1,-18 18,-18 9.9,0 18,8.1 18,18 0,9.9 -8.1,18 -18,18 z"
   class="st3"
   inkscape:connector-curvature="0" />
			</g>
		</g>
		
		
		<g
   id="C-HOVER">
			<path
   style="fill:#007576"
   id="path383"
   d="m 63.6,297.3 c 0,-11.4 -9.3,-20.6 -20.7,-20.6 -11.4,0 -20.7,9.2 -20.7,20.6 0,11.4 9.3,20.6 20.7,20.6 11.4,0 20.7,-9.2 20.7,-20.6 z"
   class="st8"
   inkscape:connector-curvature="0" />
			<path
   style="fill:#ffffff"
   id="path385"
   d="m 40.6,294.1 c 0.5,-0.7 1.2,-1 2.1,-1 0.8,0 1.4,0.2 1.8,0.6 0.4,0.4 0.7,1 0.8,1.9 h 2.1 c -0.1,-1.4 -0.6,-2.4 -1.4,-3.1 -0.8,-0.7 -1.9,-1.1 -3.2,-1.1 -1,0 -1.8,0.2 -2.6,0.7 -0.7,0.5 -1.3,1.1 -1.7,2 -0.4,0.9 -0.6,1.9 -0.6,3 v 1.1 c 0,1.1 0.2,2.1 0.6,2.9 0.4,0.8 1,1.4 1.7,1.9 0.7,0.5 1.5,0.7 2.5,0.7 1.4,0 2.5,-0.4 3.3,-1.1 0.8,-0.7 1.3,-1.7 1.4,-3 h -2.1 c -0.1,0.9 -0.3,1.5 -0.8,1.9 -0.5,0.4 -1.1,0.6 -1.9,0.6 -0.9,0 -1.6,-0.3 -2.1,-1 -0.5,-0.7 -0.7,-1.7 -0.7,-3 V 297 c 0.1,-1.3 0.3,-2.2 0.8,-2.9 z"
   class="st3"
   inkscape:connector-curvature="0" />
			<g
   id="g391">
				<path
   style="fill:none"
   id="path387"
   d="m 66.8,332.6 c 0.3,0.1 0.5,0.1 0.8,0.1 1.8,0 3.3,-1.2 3.6,-2.9 L 82,278.1 c 0.2,-1 0,-2 -0.5,-2.8 -0.6,-0.8 -1.4,-1.4 -2.4,-1.6 L 17.3,260.8 c -0.3,-0.1 -0.5,-0.1 -0.8,-0.1 -1.7,0 -3.3,1.2 -3.6,3 L 2.1,315.3 c -0.2,1 0,2 0.5,2.8 0.6,0.8 1.4,1.4 2.4,1.6 z"
   class="st1"
   inkscape:connector-curvature="0" />
				<path
   style="fill:#007576"
   id="path389"
   d="m 66.3,334.5 c 0.4,0.1 0.8,0.1 1.2,0.1 2.7,0 5,-1.9 5.5,-4.5 l 10.8,-51.7 c 0.7,-3.1 -1.3,-6.2 -4.4,-6.8 L 17.6,258.7 h -1.1 c -2.6,0 -5,1.9 -5.6,4.6 L 0.1,314.8 c -0.7,3.1 1.3,6.2 4.4,6.8 z M 2.6,318.1 c -0.5,-0.8 -0.7,-1.8 -0.5,-2.8 l 10.8,-51.6 c 0.3,-1.8 1.9,-3 3.6,-3 0.3,0 0.5,0 0.8,0.1 l 61.8,12.9 c 1,0.2 1.8,0.8 2.4,1.6 0.5,0.8 0.7,1.8 0.5,2.8 l -10.8,51.7 c -0.3,1.7 -1.8,2.9 -3.6,2.9 -0.3,0 -0.5,0 -0.8,-0.1 L 5,319.7 c -1,-0.2 -1.8,-0.8 -2.4,-1.6 z"
   class="st8"
   inkscape:connector-curvature="0" />
			</g>
		</g>
		<g
   id="C-ACTIVE"
   style="display:inline">
			<path
   style="fill:#007576"
   id="path394"
   d="m 66.2,334.6 c 3.1,0.6 6.1,-1.4 6.8,-4.4 l 10.8,-51.7 c 0.7,-3.1 -1.3,-6.2 -4.4,-6.8 L 17.6,258.8 c -3.1,-0.7 -6.2,1.3 -6.8,4.4 L 0,314.8 c -0.7,3.1 1.3,6.2 4.4,6.8 z"
   class="st8"
   inkscape:connector-curvature="0" />
			
			<path
   style="fill:#ffffff"
   id="path398"
   d="m 40.7,294.1 c 0.5,-0.7 1.2,-1 2.1,-1 0.8,0 1.4,0.2 1.8,0.6 0.4,0.4 0.7,1 0.8,1.9 h 2.1 c -0.1,-1.4 -0.6,-2.4 -1.4,-3.1 -0.8,-0.7 -1.9,-1.1 -3.2,-1.1 -1,0 -1.8,0.2 -2.6,0.7 -0.7,0.5 -1.3,1.1 -1.7,2 -0.4,0.9 -0.6,1.9 -0.6,3 v 1.1 c 0,1.1 0.2,2.1 0.6,2.9 0.4,0.8 1,1.4 1.7,1.9 0.7,0.5 1.5,0.7 2.5,0.7 1.4,0 2.5,-0.4 3.3,-1.1 0.8,-0.7 1.3,-1.7 1.4,-3 h -2.1 c -0.1,0.9 -0.3,1.5 -0.8,1.9 -0.5,0.4 -1.1,0.6 -1.9,0.6 -0.9,0 -1.6,-0.3 -2.1,-1 -0.5,-0.7 -0.7,-1.7 -0.7,-3 V 297 c 0.1,-1.3 0.3,-2.2 0.8,-2.9 z"
   class="st3"
   inkscape:connector-curvature="0" />
			<path
   style="fill:#ffffff"
   id="path400"
   d="m 43.6,273.6 c -13.1,-0.4 -24,9.8 -24.5,22.9 -0.4,13.1 9.8,24 22.9,24.5 13.1,0.4 24,-9.8 24.5,-22.9 0.5,-13.1 -9.8,-24 -22.9,-24.5 z m -0.7,44.3 c -11.4,0 -20.7,-9.2 -20.7,-20.6 0,-11.4 9.3,-20.6 20.7,-20.6 11.4,0 20.7,9.2 20.7,20.6 0,11.4 -9.3,20.6 -20.7,20.6 z"
   class="st3"
   inkscape:connector-curvature="0" />
		</g>
		<g
   id="D-HOVER">
			<path
   style="fill:#83c447"
   id="path403"
   d="m 285.9,297.5 c 0,-11.4 -9.3,-20.7 -20.7,-20.7 -11.4,0 -20.7,9.3 -20.7,20.7 0,11.4 9.3,20.7 20.7,20.7 11.4,0 20.7,-9.3 20.7,-20.7 z"
   class="st9"
   inkscape:connector-curvature="0" />
			<g
   id="g409">
				<path
   style="fill:none"
   id="path405"
   d="m 268.6,297.1 c 0,-1.3 -0.3,-2.3 -0.9,-3 -0.6,-0.7 -1.4,-1 -2.5,-1 h -1.4 v 8.7 h 1.4 c 1.1,0 1.9,-0.3 2.5,-1 0.6,-0.7 0.9,-1.7 0.9,-3 z"
   class="st1"
   inkscape:connector-curvature="0" />
				<path
   style="fill:#ffffff"
   id="path407"
   d="m 269.9,300.7 c 0.5,-0.8 0.7,-1.9 0.7,-3 v -0.6 c 0,-1.1 -0.2,-2.1 -0.7,-3 -0.4,-0.8 -1.1,-1.5 -1.9,-2 -0.8,-0.5 -1.7,-0.7 -2.8,-0.7 h -3.6 v 12.1 l 3.4,-0.1 c 1.1,0 2,-0.2 2.9,-0.7 1,-0.5 1.5,-1.2 2,-2 z m -4.8,1.1 h -1.4 v -8.7 h 1.4 c 1.1,0 1.9,0.3 2.5,1 0.6,0.7 0.9,1.7 0.9,3 v 0.7 c 0,1.3 -0.3,2.3 -0.9,3 -0.5,0.7 -1.3,1 -2.5,1 z"
   class="st3"
   inkscape:connector-curvature="0" />
			</g>
			<g
   id="g415">
				<path
   style="fill:none"
   id="path411"
   d="m 240.7,333.7 c 0.2,0 0.5,0 0.8,-0.1 L 303,320 c 1,-0.2 1.9,-0.8 2.4,-1.6 0.5,-0.8 0.7,-1.8 0.5,-2.8 l -11.3,-51.5 c -0.3,-1.8 -1.8,-3 -3.6,-3 -0.3,0 -0.6,0.1 -0.9,0 l -61.6,13.6 c -2.1,0.4 -3.4,2.5 -3,4.5 l 11.4,51.5 c 0.5,1.8 2,3 3.8,3 z"
   class="st1"
   inkscape:connector-curvature="0" />
				<path
   style="fill:#83c447"
   id="path413"
   d="m 240.7,335.6 c 0.4,0 0.8,0 1.2,-0.1 l 61.6,-13.6 c 3.1,-0.7 5.1,-3.8 4.4,-6.8 l -11.3,-51.5 c -0.6,-2.6 -3,-4.5 -5.6,-4.5 -0.4,0 -0.8,0 -1.2,0.1 l -61.6,13.6 c -3.1,0.7 -5.1,3.8 -4.5,6.8 l 11.4,51.5 c 0.6,2.7 3.1,4.5 5.6,4.5 z m -12.2,-60.9 61.6,-13.6 c 0.3,0.1 0.6,0 0.9,0 1.8,0 3.3,1.2 3.6,3 l 11.3,51.5 c 0.2,1 0,2 -0.5,2.8 -0.5,0.8 -1.4,1.4 -2.4,1.6 l -61.6,13.6 c -0.3,0.1 -0.6,0.1 -0.8,0.1 -1.8,0 -3.3,-1.2 -3.7,-3 l -11.4,-51.5 c -0.3,-2 0.9,-4.1 3,-4.5 z"
   class="st9"
   inkscape:connector-curvature="0" />
			</g>
		</g>
		<g
   id="D-ACTIVE"
   style="display:inline">
			<path
   style="fill:#83c447"
   id="path418"
   d="M 241.8,335.6 303.4,322 c 3.1,-0.6 5.1,-3.7 4.4,-6.8 l -11.3,-51.5 c -0.6,-3.1 -3.7,-5.1 -6.8,-4.4 l -61.6,13.6 c -3.2,0.6 -5.1,3.7 -4.6,6.8 l 11.4,51.5 c 0.7,3.1 3.8,5.1 6.9,4.4 z"
   class="st9"
   inkscape:connector-curvature="0" />
			
			<g
   id="g426">
				<path
   style="fill:none"
   id="path422"
   d="m 268.7,297.1 c 0,-1.3 -0.3,-2.3 -0.9,-3 -0.6,-0.7 -1.4,-1 -2.5,-1 h -1.4 v 8.7 h 1.4 c 1.1,0 1.9,-0.3 2.5,-1 0.6,-0.7 0.9,-1.7 0.9,-3 z"
   class="st1"
   inkscape:connector-curvature="0" />
				<path
   style="fill:#ffffff"
   id="path424"
   d="m 270,300.7 c 0.5,-0.8 0.7,-1.9 0.7,-3 v -0.6 c 0,-1.1 -0.2,-2.1 -0.7,-3 -0.4,-0.8 -1.1,-1.5 -1.9,-2 -0.8,-0.5 -1.7,-0.7 -2.8,-0.7 h -3.6 v 12.1 l 3.4,-0.1 c 1.1,0 2,-0.2 2.9,-0.7 1,-0.5 1.5,-1.2 2,-2 z m -4.8,1.1 h -1.4 v -8.7 h 1.4 c 1.1,0 1.9,0.3 2.5,1 0.6,0.7 0.9,1.7 0.9,3 v 0.7 c 0,1.3 -0.3,2.3 -0.9,3 -0.5,0.7 -1.3,1 -2.5,1 z"
   class="st3"
   inkscape:connector-curvature="0" />
			</g>
			<path
   style="fill:#ffffff"
   id="path428"
   d="m 265.2,273.6 c -13.2,0 -23.9,10.7 -23.9,23.9 0,13.2 10.7,23.9 23.9,23.9 13.2,0 23.9,-10.7 23.9,-23.9 0,-13.2 -10.7,-23.9 -23.9,-23.9 z m -0.1,44.6 c -11.4,0 -20.7,-9.3 -20.7,-20.7 0,-11.4 9.3,-20.7 20.7,-20.7 11.4,0 20.7,9.3 20.7,20.7 0.1,11.4 -9.2,20.7 -20.7,20.7 z"
   class="st3"
   inkscape:connector-curvature="0" />
		</g>
		<g
   id="E-HOVER"
   style="display:inline">
			<path
   style="display:inline;fill:#235723"
   id="path431"
   d="m 74.9,384.5 c 0.6,-8.7 -6,-16.1 -14.6,-16.7 -8.7,-0.6 -16.1,6 -16.7,14.6 -0.6,8.6 6,16.1 14.6,16.7 8.7,0.6 16.1,-5.9 16.7,-14.6 z"
   class="st10"
   inkscape:connector-curvature="0" />
			<polygon
   style="fill:#ffffff"
   id="polygon433"
   points="63.2,379.2 63.2,377.5 55.4,377.5 55.4,389.6 63.3,389.6 63.3,387.9 57.5,387.9 57.5,384.2 62.5,384.2 62.5,382.5 57.5,382.5 57.5,379.2 "
   class="st3" />
			<g
   id="g439">
				<path
   style="fill:none"
   id="path435"
   d="m 34.9,425.9 c 0.6,0 1.3,-0.1 1.9,-0.5 l 53.9,-32.8 c 0.9,-0.5 1.5,-1.3 1.7,-2.3 0.2,-1 0,-2 -0.5,-2.8 l -20,-33 c -0.7,-1.1 -2,-1.8 -3.3,-1.8 -0.7,0 -1.4,0.2 -1.9,0.6 l -53.9,32.8 c -1.7,1 -2.3,3.3 -1.2,5.1 l 20,32.9 c 0.7,1.1 2,1.8 3.3,1.8 z"
   class="st1"
   inkscape:connector-curvature="0" />
				<path
   style="fill:#235723"
   id="path437"
   d="m 34.8,428 c 1,0 2,-0.3 3,-0.8 l 53.9,-32.8 c 2.7,-1.6 3.6,-5.2 1.9,-7.9 l -20,-33 c -1.2,-1.8 -3.1,-2.8 -5,-2.8 -1,0 -2,0.3 -3,0.8 l -53.9,32.8 c -2.7,1.6 -3.5,5.2 -1.9,7.9 l 20,33 c 1.1,1.8 3,2.8 5,2.8 z m -22,-41.9 53.9,-32.8 c 0.5,-0.4 1.2,-0.6 1.9,-0.6 1.3,0 2.6,0.7 3.3,1.8 l 20,33 c 0.5,0.8 0.7,1.8 0.5,2.8 -0.2,1 -0.8,1.8 -1.7,2.3 l -53.9,32.8 c -0.6,0.4 -1.3,0.5 -1.9,0.5 -1.3,0 -2.6,-0.7 -3.3,-1.8 l -20,-32.9 c -1.1,-1.8 -0.5,-4.1 1.2,-5.1 z"
   class="st10"
   inkscape:connector-curvature="0" />
			</g>
		</g>
		<g
   id="E-ACTIVE"
   style="display:inline">
			<path
   style="fill:#235723"
   id="path442"
   d="m 37.7,427.1 53.9,-32.8 c 2.7,-1.6 3.6,-5.2 1.9,-7.9 l -20,-33 c -1.6,-2.7 -5.2,-3.5 -7.9,-1.9 l -53.9,32.8 c -2.7,1.6 -3.5,5.2 -1.9,7.9 l 20,33 c 1.6,2.7 5.2,3.5 7.9,1.9 z"
   class="st10"
   inkscape:connector-curvature="0" />
			
			<polygon
   style="fill:#ffffff"
   id="polygon446"
   points="62.5,384.2 62.5,382.5 57.5,382.5 57.5,379.2 63.2,379.2 63.2,377.5 55.4,377.5 55.4,389.6 63.3,389.6 63.3,387.9 57.5,387.9 57.5,384.2 "
   class="st3" />
			<path
   style="fill:#ffffff"
   id="path448"
   d="m 59.237637,364.94006 c -10.4,0 -18.9,8.5 -18.9,18.9 0,10.4 8.5,18.9 18.9,18.9 10.4,0 18.9,-8.5 18.9,-18.9 0,-10.4 -8.4,-18.9 -18.9,-18.9 z m -1,34.6 c -8.7,-0.6 -15.2,-8.1 -14.6,-16.7 0.6,-8.6 8.1,-15.2 16.7,-14.6 8.7,0.6 15.2,8.1 14.6,16.7 -0.6,8.6 -8,15.1 -16.7,14.6 z"
   class="st3"
   inkscape:connector-curvature="0" />
		</g>
		<g
   id="F-HOVER"
   style="display:inline">
			<path
   style="display:inline;fill:#2a8a60"
   id="path451"
   d="m 264.9,383.5 c 0,-8.7 -7,-15.7 -15.7,-15.7 -8.7,0 -15.7,7 -15.7,15.7 0,8.7 7,15.7 15.7,15.7 8.7,0 15.7,-7 15.7,-15.7 z"
   class="st11"
   inkscape:connector-curvature="0" />
			<polygon
   style="display:inline;fill:#ffffff"
   id="polygon453"
   points="247.3,384.5 252.1,384.5 252.1,382.8 247.3,382.8 247.3,379.2 252.8,379.2 252.8,377.5 245.1,377.5 245.1,389.6 247.3,389.6 "
   class="st3" />
			<g
   id="g459">
				<path
   style="fill:none"
   id="path455"
   d="m 219.2,391.2 54.8,31.3 c 0.6,0.3 1.3,0.5 1.9,0.5 1.3,0 2.5,-0.7 3.2,-1.9 l 18,-31.5 c 1,-1.8 0.4,-4.1 -1.4,-5.1 l -54.8,-31.3 c -0.5,-0.3 -1.2,-0.5 -1.8,-0.5 -1.4,0 -2.6,0.7 -3.3,1.9 l -18,31.5 c -1.1,1.8 -0.4,4.1 1.4,5.1 z"
   class="st1"
   inkscape:connector-curvature="0" />
				<path
   style="fill:#2a8a60"
   id="path457"
   d="m 272.9,424.2 c 0.9,0.5 1.9,0.8 2.9,0.8 2,0 3.9,-1 5,-2.9 l 18,-31.5 c 1.6,-2.8 0.6,-6.3 -2.1,-7.8 l -54.8,-31.3 c -1,-0.6 -1.9,-0.8 -2.9,-0.8 -2,0 -4,1.1 -5,2.9 l -18,31.5 c -1.6,2.8 -0.6,6.3 2.1,7.8 z m -55.2,-38.1 18,-31.5 c 0.7,-1.2 1.9,-1.9 3.3,-1.9 0.6,0 1.3,0.2 1.8,0.5 l 54.8,31.3 c 1.8,1 2.4,3.3 1.4,5.1 l -18,31.5 c -0.7,1.2 -1.9,1.9 -3.2,1.9 -0.6,0 -1.3,-0.2 -1.9,-0.5 l -54.8,-31.3 c -1.7,-1 -2.4,-3.3 -1.4,-5.1 z"
   class="st11"
   inkscape:connector-curvature="0" />
			</g>
		</g>
		<g
   id="F-ACTIVE"
   style="display:inline">
			<path
   style="display:inline;fill:#2a8a60"
   id="path462"
   d="m 272.9,424.2 c 2.7,1.6 6.2,0.7 7.8,-2.1 l 18,-31.5 c 1.6,-2.7 0.7,-6.2 -2.1,-7.8 l -54.8,-31.3 c -2.7,-1.6 -6.3,-0.6 -7.8,2.1 l -18,31.5 c -1.6,2.7 -0.7,6.2 2.1,7.8 z"
   class="st11"
   inkscape:connector-curvature="0" />
			<polygon
   style="display:inline;fill:#ffffff"
   id="polygon466"
   points="245.1,377.5 245.1,389.6 247.3,389.6 247.3,384.5 252.1,384.5 252.1,382.8 247.3,382.8 247.3,379.2 252.8,379.2 252.8,377.5 "
   class="st3" />
			
			<path
   style="display:inline;fill:#ffffff"
   id="path468"
   d="m 249.3,364.6 c -10.4,0 -18.9,8.5 -18.9,18.9 0,10.4 8.5,18.9 18.9,18.9 10.4,0 18.9,-8.5 18.9,-18.9 -0.1,-10.4 -8.5,-18.9 -18.9,-18.9 z m 0,34.6 c -8.7,0 -15.7,-7 -15.7,-15.7 0,-8.7 7,-15.7 15.7,-15.7 8.7,0 15.7,7 15.7,15.7 -0.1,8.7 -7.1,15.7 -15.7,15.7 z"
   class="st3"
   inkscape:connector-curvature="0" />
		</g>

<g
   id="A-HOVER"
   transform="translate(0,-1.2795266)">
   <ellipse
   ry="14.25"
   rx="13.797619"
   cy="241.34523"
   cx="111.28572"
   id="path525"
   style="fill:#008066;stroke-width:1.24039698" /><g
   id="text505"
   style="font-style:normal;font-variant:normal;font-weight:normal;font-stretch:normal;font-size:16px;line-height:1.25;font-family:'Arial Rounded MT Bold';-inkscape-font-specification:'Arial Rounded MT Bold, Normal';font-variant-ligatures:normal;font-variant-caps:normal;font-variant-numeric:normal;font-feature-settings:normal;text-align:start;letter-spacing:0px;word-spacing:0px;writing-mode:lr-tb;text-anchor:start;fill:#ffffff;fill-opacity:1;stroke:none"
   aria-label="A"><path
     id="path5655"
     style="font-style:normal;font-variant:normal;font-weight:normal;font-stretch:normal;font-size:16px;font-family:'Arial Rounded MT Bold';-inkscape-font-specification:'Arial Rounded MT Bold, Normal';font-variant-ligatures:normal;font-variant-caps:normal;font-variant-numeric:normal;font-feature-settings:normal;text-align:start;writing-mode:lr-tb;text-anchor:start;fill:#ffffff"
     d="m 113.81918,245.43462 -0.54687,-1.4375 h -4.65625 l -0.54688,1.46875 q -0.32031,0.85937 -0.54687,1.16406 -0.22656,0.29687 -0.74219,0.29687 -0.4375,0 -0.77344,-0.32031 -0.33593,-0.32031 -0.33593,-0.72656 0,-0.23438 0.0781,-0.48438 0.0781,-0.25 0.25781,-0.69531 l 2.92969,-7.4375 q 0.125,-0.32031 0.29688,-0.76562 0.17968,-0.45313 0.375,-0.75 0.20312,-0.29688 0.52343,-0.47657 0.32813,-0.1875 0.80469,-0.1875 0.48438,0 0.80469,0.1875 0.32812,0.17969 0.52344,0.46875 0.20312,0.28907 0.33593,0.625 0.14063,0.32813 0.35157,0.88282 l 2.99218,7.39062 q 0.35157,0.84375 0.35157,1.22656 0,0.39844 -0.33594,0.73438 -0.32813,0.32812 -0.79688,0.32812 -0.27343,0 -0.46875,-0.10156 -0.19531,-0.0937 -0.32812,-0.25781 -0.13281,-0.17188 -0.28906,-0.51563 -0.14844,-0.35156 -0.25782,-0.61718 z m -4.59375,-3.17969 h 3.42188 l -1.72656,-4.72656 z"
     inkscape:connector-curvature="0" /></g><path
   style="fill:#008066;stroke-width:1.15112209"
   id="path511"
   d="m 111.81701,214.56366 c -15.109992,-0.45955 -27.682398,11.2584 -28.259116,26.3079 -0.461375,15.04946 11.303644,27.57156 26.413626,28.14596 15.10996,0.45952 27.68238,-11.25838 28.25912,-26.30788 0.57671,-15.04948 -11.30365,-27.57159 -26.41363,-28.14598 z m -1.2872,52.49195 c -13.149174,0 -24.511868,-12.16953 -24.6758,-25.26501 -0.159941,-12.77663 11.526625,-25.26501 25.15562,-25.26501 13.14912,0 25.1443,12.30435 25.15556,25.58489 0.0111,13.07275 -12.48626,24.94513 -25.63538,24.94513 z"
   class="st3"
   inkscape:connector-curvature="0"
   sodipodi:nodetypes="cccccsssss" />

</g>
<g
   id="A-ACTIVE"
   transform="translate(0,-0.9596366)"
   style="display:inline">
   <ellipse
   class="st1"
   cx="111.2"
   cy="241.7"
   rx="27.299999"
   ry="27.200001"
   id="ellipse260"
   style="display:inline;fill:#008066" /><g
   id="text491"
   style="font-style:normal;font-variant:normal;font-weight:normal;font-stretch:normal;font-size:16px;line-height:1.25;font-family:'Arial Rounded MT Bold';-inkscape-font-specification:'Arial Rounded MT Bold, Normal';font-variant-ligatures:normal;font-variant-caps:normal;font-variant-numeric:normal;font-feature-settings:normal;text-align:start;letter-spacing:0px;word-spacing:0px;writing-mode:lr-tb;text-anchor:start;fill:#ffffff;fill-opacity:1;stroke:none"
   aria-label="A"><path
     id="path5652"
     style="font-style:normal;font-variant:normal;font-weight:normal;font-stretch:normal;font-size:16px;font-family:'Arial Rounded MT Bold';-inkscape-font-specification:'Arial Rounded MT Bold, Normal';font-variant-ligatures:normal;font-variant-caps:normal;font-variant-numeric:normal;font-feature-settings:normal;text-align:start;writing-mode:lr-tb;text-anchor:start"
     d="m 113.81918,245.11473 -0.54687,-1.4375 h -4.65625 l -0.54688,1.46875 q -0.32031,0.85938 -0.54687,1.16406 -0.22656,0.29688 -0.74219,0.29688 -0.4375,0 -0.77344,-0.32031 -0.33593,-0.32032 -0.33593,-0.72657 0,-0.23437 0.0781,-0.48437 0.0781,-0.25 0.25781,-0.69531 l 2.92969,-7.4375 q 0.125,-0.32032 0.29688,-0.76563 0.17968,-0.45312 0.375,-0.75 0.20312,-0.29687 0.52343,-0.47656 0.32813,-0.1875 0.80469,-0.1875 0.48438,0 0.80469,0.1875 0.32812,0.17969 0.52344,0.46875 0.20312,0.28906 0.33593,0.625 0.14063,0.32812 0.35157,0.88281 l 2.99218,7.39063 q 0.35157,0.84375 0.35157,1.22656 0,0.39844 -0.33594,0.73437 -0.32813,0.32813 -0.79688,0.32813 -0.27343,0 -0.46875,-0.10156 -0.19531,-0.0937 -0.32812,-0.25782 -0.13281,-0.17187 -0.28906,-0.51562 -0.14844,-0.35156 -0.25782,-0.61719 z m -4.59375,-3.17969 h 3.42188 l -1.72656,-4.72656 z"
     inkscape:connector-curvature="0" /></g><path
   style="fill:#ffffff;stroke-width:0.66946709"
   id="path493"
   d="m 111.67282,224.7287 c -8.68239,-0.2705 -16.359032,7.19249 -16.69042,16.05103 -0.265111,8.85853 7.17379,17.36033 15.85618,17.13298 8.68237,0.83595 16.47211,-7.64486 16.8035,-16.50341 0.3314,-8.85855 -7.28688,-16.3425 -15.96926,-16.6806 z m -0.35084,30.52223 c -7.55567,0 -13.719495,-6.22126 -13.719495,-13.93022 0,-7.70897 6.163825,-13.93023 13.719495,-13.93023 7.55565,0 13.71948,6.22126 13.71948,13.93023 0,7.70896 -6.16383,13.93022 -13.71948,13.93022 z"
   class="st3"
   inkscape:connector-curvature="0"
   sodipodi:nodetypes="cccccsssss" />

</g>


<g
   id="B-HOVER"
   transform="matrix(0.98298065,0,0,0.9609486,2.5800908,2.1502833)"
   style="display:inline">
   <circle
   style="display:inline;fill:#2c5aa0;stroke-width:0.75590551;stroke-miterlimit:4;stroke-dasharray:none"
   id="path1349"
   cx="198.96637"
   cy="247.37126"
   r="13.75491" /><g
   id="text1353"
   style="font-style:normal;font-variant:normal;font-weight:normal;font-stretch:normal;font-size:16px;line-height:1.25;font-family:'Arial Rounded MT Bold';-inkscape-font-specification:'Arial Rounded MT Bold, Normal';font-variant-ligatures:normal;font-variant-caps:normal;font-variant-numeric:normal;font-feature-settings:normal;text-align:start;letter-spacing:0px;word-spacing:0px;writing-mode:lr-tb;text-anchor:start;fill:#d5f6ff;fill-opacity:1;stroke:none;stroke-width:0.75590551;stroke-miterlimit:4;stroke-dasharray:none"
   aria-label="B"><path
     id="path5661"
     d="m 199.02925,252.48936 h -3.5 q -0.75781,0 -1.08594,-0.33593 -0.32031,-0.34375 -0.32031,-1.08594 v -8.60938 q 0,-0.75781 0.32813,-1.08593 0.33593,-0.33594 1.07812,-0.33594 h 3.71094 q 0.82031,0 1.42187,0.10156 0.60157,0.10156 1.07813,0.39063 0.40625,0.24218 0.71875,0.61718 0.3125,0.36719 0.47656,0.82032 0.16406,0.44531 0.16406,0.94531 0,1.71875 -1.71875,2.51562 2.25782,0.71875 2.25782,2.79688 0,0.96094 -0.49219,1.73437 -0.49219,0.76563 -1.32813,1.13282 -0.52343,0.21875 -1.20312,0.3125 -0.67969,0.0859 -1.58594,0.0859 z m -0.17187,-5.08593 h -2.41407 v 3.34375 h 2.49219 q 2.35156,0 2.35156,-1.69532 0,-0.86718 -0.60937,-1.25781 -0.60938,-0.39062 -1.82031,-0.39062 z m -2.41407,-4.625 v 2.96093 h 2.125 q 0.86719,0 1.33594,-0.16406 0.47656,-0.16406 0.72656,-0.625 0.19532,-0.32812 0.19532,-0.73437 0,-0.86719 -0.61719,-1.14844 -0.61719,-0.28906 -1.88281,-0.28906 z"
     inkscape:connector-curvature="0"
     style="fill:#d5f6ff;stroke-width:0.75590551;stroke-miterlimit:4;stroke-dasharray:none" /></g><path
   style="fill:#2c5aa0;stroke-width:0.75590551;stroke-miterlimit:4;stroke-dasharray:none"
   id="path1355"
   d="m 199.53287,218.9026 c -15.57389,-0.48365 -28.53228,11.84925 -29.12671,27.68851 -0.47553,15.83926 11.65067,29.01851 27.22455,29.62307 15.57385,0.48363 28.53225,-11.84923 29.12668,-27.6885 0.59445,-15.83929 -11.65068,-29.01854 -27.22452,-29.62308 z m -1.31202,55.64258 c -13.55285,0 -25.93547,-14.04951 -25.93547,-27.83333 0,-13.7838 13.18232,-26.14024 26.73517,-26.14024 13.55282,0 26.72712,14.33394 25.93546,27.77845 -0.81025,13.75999 -13.18234,26.19512 -26.73516,26.19512 z"
   class="st3"
   inkscape:connector-curvature="0"
   sodipodi:nodetypes="cccccsssss" />
</g><g
   id="B-ACTIVE"
   transform="translate(0.19640335,-1.2527743)"
   style="display:inline">
   <ellipse
   style="fill:#2c5aa0;stroke-width:1.28047335"
   id="path1332"
   cx="197.5269"
   cy="240.97362"
   rx="27.989643"
   ry="27.509821" /><g
   id="text1336"
   style="font-style:normal;font-variant:normal;font-weight:normal;font-stretch:normal;font-size:16px;line-height:1.25;font-family:'Arial Rounded MT Bold';-inkscape-font-specification:'Arial Rounded MT Bold, Normal';font-variant-ligatures:normal;font-variant-caps:normal;font-variant-numeric:normal;font-feature-settings:normal;text-align:start;letter-spacing:0px;word-spacing:0px;writing-mode:lr-tb;text-anchor:start;display:inline;fill:#ffffff;fill-opacity:1;stroke:none"
   aria-label="B"><path
     id="path5658"
     d="m 198.0696,246.41159 h -3.5 q -0.75782,0 -1.08594,-0.33594 -0.32031,-0.34375 -0.32031,-1.08593 v -8.60938 q 0,-0.75781 0.32812,-1.08594 0.33594,-0.33593 1.07813,-0.33593 h 3.71093 q 0.82032,0 1.42188,0.10156 0.60156,0.10156 1.07812,0.39062 0.40625,0.24219 0.71875,0.61719 0.3125,0.36719 0.47657,0.82031 0.16406,0.44532 0.16406,0.94532 0,1.71875 -1.71875,2.51562 2.25781,0.71875 2.25781,2.79688 0,0.96093 -0.49219,1.73437 -0.49218,0.76563 -1.32812,1.13281 -0.52344,0.21875 -1.20313,0.3125 -0.67968,0.0859 -1.58593,0.0859 z m -0.17188,-5.08594 h -2.41406 v 3.34375 h 2.49219 q 2.35156,0 2.35156,-1.69531 0,-0.86719 -0.60938,-1.25781 -0.60937,-0.39063 -1.82031,-0.39063 z m -2.41406,-4.625 v 2.96094 h 2.125 q 0.86719,0 1.33594,-0.16406 0.47656,-0.16406 0.72656,-0.625 0.19531,-0.32813 0.19531,-0.73438 0,-0.86718 -0.61719,-1.14843 -0.61718,-0.28907 -1.88281,-0.28907 z"
     inkscape:connector-curvature="0" /></g><path
   style="display:inline;fill:#ffffff;stroke-width:0.36569488;stroke-miterlimit:4;stroke-dasharray:none"
   id="path1340"
   d="m 197.20946,223.90625 c -8.38906,-0.26209 -17.14644,8.66812 -15.92127,17.25136 -0.25615,8.58322 7.04848,15.95746 15.43753,16.28507 10.36147,0.54721 18.38272,-7.11842 17.93023,-16.16657 1.24742,-9.66802 -8.74836,-17.97209 -17.44649,-17.36986 z m 0.74025,30.95462 c -7.52166,-0.32819 -13.11268,-5.45253 -14.18321,-12.84435 -1.08177,-7.4694 5.79237,-15.36667 13.05229,-15.34869 8.43275,0.0209 15.12539,5.73254 15.15958,13.91262 0.0336,8.02882 -6.63724,14.60294 -14.02866,14.28042 z"
   class="st3"
   inkscape:connector-curvature="0"
   sodipodi:nodetypes="cccccsssss" />
</g></g>
</switch>

</svg>